<?xml version="1.0" encoding="utf-8"?>
<svg width="800px" height="800px" viewBox="0 0 24 24" fill="none" xmlns="http://www.w3.org/2000/svg">
  <g id="SVGRepo_bgCarrier" stroke-width="0"/>
  <g id="SVGRepo_tracerCarrier" stroke-linecap="round" stroke-linejoin="round"/>
  <g id="SVGRepo_iconCarrier">
    <path d="M17 3.33782C15.5291 2.48697 13.8214 2 12 2C6.47715 2 2 6.47715 2 12C2 13.5997 2.37562 15.1116 3.04346 16.4525C3.22094 16.8088 3.28001 17.2161 3.17712 17.6006L2.58151 19.8267C2.32295 20.793 3.20701 21.677 4.17335 21.4185L6.39939 20.8229C6.78393 20.72 7.19121 20.7791 7.54753 20.9565C8.88837 21.6244 10.4003 22 12 22C17.5228 22 22 17.5228 22 12C22 10.1786 21.513 8.47087 20.6622 7" stroke="#25D366 " stroke-width="1.5" stroke-linecap="round"/>
  </g>
  <g id="group-1" stroke-width="0" transform="matrix(1, 0, 0, 1, 16.953734, -4.355854)"/>
  <g id="group-2" stroke-linecap="round" stroke-linejoin="round" transform="matrix(1, 0, 0, 1, 16.953734, -4.355854)"/>
  <g id="group-3" transform="matrix(0.6242, 0, 0, 0.634875, 4.483804, 4.415695)" style="">
    <path d="M 4.048 7.879 C 3.975 9.787 4.458 13.028 7.709 16.278 C 8.493 17.063 9.277 17.686 10.041 18.179 M 5.579 4.883 C 6.972 3.49 9.194 3.678 10.079 5.262 L 10.728 6.425 C 11.313 7.475 11.078 8.851 10.156 9.774 C 10.156 9.774 10.156 9.774 10.156 9.774 C 10.156 9.774 9.037 10.893 11.066 12.922 C 13.094 14.95 14.212 13.832 14.213 13.831 C 14.213 13.831 14.213 13.831 14.213 13.831 C 15.136 12.909 16.512 12.674 17.562 13.26 L 18.725 13.909 C 20.31 14.793 20.497 17.015 19.104 18.408 C 18.267 19.245 17.241 19.897 16.108 19.94 C 15.294 19.97 14.237 19.9 13.041 19.557" stroke="#25D366" stroke-width="1.5" stroke-linecap="round"/>
  </g>
</svg>